<svg width="229" height="217" viewBox="0 0 229 217" fill="none" xmlns="http://www.w3.org/2000/svg">
<g clip-path="url(#clip0_11_18)">
<path d="M135.557 -18.1271C136.177 -21.0456 135.613 -24.091 133.988 -26.5933C132.363 -29.0957 129.81 -30.85 126.892 -31.4703L99.3814 -37.3178C96.4629 -37.9382 93.4175 -37.3737 90.9152 -35.7487C88.4128 -34.1237 86.6585 -31.5712 86.0382 -28.6527L80.1907 -1.14227C79.5703 1.77622 80.1348 4.8216 81.7598 7.32393C83.3848 9.82626 85.9374 11.5806 88.8558 12.2009L93.5338 -9.80742C94.4644 -14.1851 97.0958 -18.0139 100.849 -20.4515C104.603 -22.889 109.171 -23.7357 113.549 -22.8052L135.557 -18.1271Z" fill="#383842"/>
<path d="M139.89 -11.4556C142.808 -10.8352 145.361 -9.08092 146.986 -6.57859C148.611 -4.07626 149.175 -1.03088 148.555 1.88761L142.707 29.398C142.087 32.3165 140.332 34.869 137.83 36.494C135.328 38.1191 132.282 38.6835 129.364 38.0632L101.854 32.2156C98.9351 31.5953 96.3826 29.841 94.7575 27.3387C93.1325 24.8363 92.5681 21.791 93.1884 18.8725L99.0359 -8.63792C99.6563 -11.5564 101.411 -14.1089 103.913 -15.734C106.415 -17.359 109.461 -17.9234 112.379 -17.3031L139.89 -11.4556Z" fill="#383842"/>
<path d="M21.5569 90.8729C22.1773 87.9544 21.6128 84.909 19.9878 82.4067C18.3628 79.9043 15.8103 78.15 12.8918 77.5297L-14.6186 71.6822C-17.5371 71.0618 -20.5825 71.6263 -23.0848 73.2513C-25.5872 74.8763 -27.3415 77.4288 -27.9618 80.3473L-33.8093 107.858C-34.4297 110.776 -33.8652 113.822 -32.2402 116.324C-30.6152 118.826 -28.0626 120.581 -25.1442 121.201L-20.4661 99.1926C-19.5356 94.8148 -16.9042 90.9861 -13.1507 88.5485C-9.39719 86.111 -4.82912 85.2643 -0.451392 86.1948L21.5569 90.8729Z" fill="#383842"/>
<path d="M25.8895 97.5444C28.808 98.1648 31.3605 99.9191 32.9855 102.421C34.6106 104.924 35.175 107.969 34.5547 110.888L28.7071 138.398C28.0868 141.316 26.3325 143.869 23.8302 145.494C21.3278 147.119 18.2825 147.684 15.364 147.063L-12.1464 141.216C-15.0649 140.595 -17.6174 138.841 -19.2425 136.339C-20.8675 133.836 -21.4319 130.791 -20.8116 127.872L-14.9641 100.362C-14.3437 97.4436 -12.5894 94.8911 -10.0871 93.266C-7.58477 91.641 -4.53939 91.0766 -1.6209 91.6969L25.8895 97.5444Z" fill="#383842"/>
<path d="M135.557 196.873C136.177 193.954 135.613 190.909 133.988 188.407C132.363 185.904 129.81 184.15 126.892 183.53L99.3814 177.682C96.4629 177.062 93.4175 177.626 90.9152 179.251C88.4128 180.876 86.6585 183.429 86.0382 186.347L80.1907 213.858C79.5703 216.776 80.1348 219.822 81.7598 222.324C83.3848 224.826 85.9374 226.581 88.8558 227.201L93.5338 205.193C94.4644 200.815 97.0958 196.986 100.849 194.549C104.603 192.111 109.171 191.264 113.549 192.195L135.557 196.873Z" fill="#383842"/>
<path d="M139.89 203.544C142.808 204.165 145.361 205.919 146.986 208.421C148.611 210.924 149.175 213.969 148.555 216.888L142.707 244.398C142.087 247.317 140.332 249.869 137.83 251.494C135.328 253.119 132.282 253.684 129.364 253.063L101.854 247.216C98.9351 246.595 96.3826 244.841 94.7575 242.339C93.1325 239.836 92.5681 236.791 93.1884 233.872L99.0359 206.362C99.6563 203.444 101.411 200.891 103.913 199.266C106.415 197.641 109.461 197.077 112.379 197.697L139.89 203.544Z" fill="#383842"/>
<path d="M250.557 90.8729C251.177 87.9544 250.613 84.909 248.988 82.4067C247.363 79.9043 244.81 78.15 241.892 77.5297L214.381 71.6822C211.463 71.0618 208.418 71.6263 205.915 73.2513C203.413 74.8763 201.659 77.4288 201.038 80.3473L195.191 107.858C194.57 110.776 195.135 113.822 196.76 116.324C198.385 118.826 200.937 120.581 203.856 121.201L208.534 99.1926C209.464 94.8148 212.096 90.9861 215.849 88.5485C219.603 86.111 224.171 85.2643 228.549 86.1948L250.557 90.8729Z" fill="#383842"/>
<path d="M254.889 97.5444C257.808 98.1648 260.361 99.9191 261.986 102.421C263.611 104.924 264.175 107.969 263.555 110.888L257.707 138.398C257.087 141.316 255.332 143.869 252.83 145.494C250.328 147.119 247.282 147.684 244.364 147.063L216.854 141.216C213.935 140.595 211.383 138.841 209.758 136.339C208.132 133.836 207.568 130.791 208.188 127.872L214.036 100.362C214.656 97.4436 216.411 94.8911 218.913 93.266C221.415 91.641 224.461 91.0766 227.379 91.6969L254.889 97.5444Z" fill="#383842"/>
</g>
<defs>
<clipPath id="clip0_11_18">
<rect width="229" height="217" fill="white"/>
</clipPath>
</defs>
</svg>
